<svg viewBox="0 0 1080 800" width="1080" height="800" role="img" aria-label="Четыре формы обследования сводятся в одну таблицу домохозяйств" xmlns="http://www.w3.org/2000/svg"><polygon points="437.1,105.6 540.0,165.0 540.0,188.8 437.1,129.4" fill="#1A2740" stroke="#4C618C" stroke-width="1.5"/><polygon points="642.9,105.6 540.0,165.0 540.0,188.8 642.9,129.4" fill="#253554" stroke="#4C618C" stroke-width="1.5"/><polygon points="540.0,46.2 642.9,105.6 540.0,165.0 437.1,105.6" fill="#35496F" stroke="#4C618C" stroke-width="1.5"/><polygon points="568.1,181.2 670.9,240.6 670.9,264.4 568.1,205.0" fill="#1A2740" stroke="#4C618C" stroke-width="1.5"/><polygon points="773.8,181.2 670.9,240.6 670.9,264.4 773.8,205.0" fill="#253554" stroke="#4C618C" stroke-width="1.5"/><polygon points="670.9,121.8 773.8,181.2 670.9,240.6 568.1,181.2" fill="#35496F" stroke="#4C618C" stroke-width="1.5"/><polygon points="306.2,181.2 409.1,240.6 409.1,264.4 306.2,205.0" fill="#1A2740" stroke="#4C618C" stroke-width="1.5"/><polygon points="511.9,181.2 409.1,240.6 409.1,264.4 511.9,205.0" fill="#253554" stroke="#4C618C" stroke-width="1.5"/><polygon points="409.1,121.8 511.9,181.2 409.1,240.6 306.2,181.2" fill="#35496F" stroke="#4C618C" stroke-width="1.5"/><polygon points="437.1,256.8 540.0,316.2 540.0,340.0 437.1,280.6" fill="#1A2740" stroke="#4C618C" stroke-width="1.5"/><polygon points="642.9,256.8 540.0,316.2 540.0,340.0 642.9,280.6" fill="#253554" stroke="#4C618C" stroke-width="1.5"/><polygon points="540.0,197.4 642.9,256.8 540.0,316.2 437.1,256.8" fill="#35496F" stroke="#4C618C" stroke-width="1.5"/><polygon points="245.4,544.7 540.0,714.8 540.0,750.4 245.4,580.3" fill="#6B461C" stroke="#4C618C" stroke-width="1.5"/><polygon points="834.6,544.7 540.0,714.8 540.0,750.4 834.6,580.3" fill="#8E5D26" stroke="#4C618C" stroke-width="1.5"/><polygon points="540.0,374.6 834.6,544.7 540.0,714.8 245.4,544.7" fill="#C07F33" stroke="#4C618C" stroke-width="1.5"/><line x1="540.0" y1="253.6" x2="540.0" y2="464.4" stroke="#C07F33" stroke-width="3.6" stroke-linecap="round"/><polygon points="540.0,480.4 531.7,464.4 548.3,464.4" fill="#C07F33"/></svg>