<svg viewBox="0 0 1420 250" width="1420" height="250" role="img" aria-label="Конвейер из пяти шагов обработки данных" xmlns="http://www.w3.org/2000/svg"><polygon points="62.5,85.6 130.0,124.6 130.0,174.0 62.5,135.0" fill="#27507B" stroke="#4C618C" stroke-width="1.5"/><polygon points="197.5,85.6 130.0,124.6 130.0,174.0 197.5,135.0" fill="#36699F" stroke="#4C618C" stroke-width="1.5"/><polygon points="130.0,46.6 197.5,85.6 130.0,124.6 62.5,85.6" fill="#4A8CD4" stroke="#4C618C" stroke-width="1.5"/><polygon points="292.1,85.6 359.7,124.6 359.7,174.0 292.1,135.0" fill="#1A2740" stroke="#4C618C" stroke-width="1.5"/><polygon points="427.2,85.6 359.7,124.6 359.7,174.0 427.2,135.0" fill="#253554" stroke="#4C618C" stroke-width="1.5"/><polygon points="359.7,46.6 427.2,85.6 359.7,124.6 292.1,85.6" fill="#35496F" stroke="#4C618C" stroke-width="1.5"/><polygon points="521.8,85.6 589.3,124.6 589.3,174.0 521.8,135.0" fill="#1A2740" stroke="#4C618C" stroke-width="1.5"/><polygon points="656.9,85.6 589.3,124.6 589.3,174.0 656.9,135.0" fill="#253554" stroke="#4C618C" stroke-width="1.5"/><polygon points="589.3,46.6 656.9,85.6 589.3,124.6 521.8,85.6" fill="#35496F" stroke="#4C618C" stroke-width="1.5"/><polygon points="751.5,85.6 819.0,124.6 819.0,174.0 751.5,135.0" fill="#1A2740" stroke="#4C618C" stroke-width="1.5"/><polygon points="886.6,85.6 819.0,124.6 819.0,174.0 886.6,135.0" fill="#253554" stroke="#4C618C" stroke-width="1.5"/><polygon points="819.0,46.6 886.6,85.6 819.0,124.6 751.5,85.6" fill="#35496F" stroke="#4C618C" stroke-width="1.5"/><polygon points="981.1,85.6 1048.7,124.6 1048.7,174.0 981.1,135.0" fill="#6B461C" stroke="#4C618C" stroke-width="1.5"/><polygon points="1116.2,85.6 1048.7,124.6 1048.7,174.0 1116.2,135.0" fill="#8E5D26" stroke="#4C618C" stroke-width="1.5"/><polygon points="1048.7,46.6 1116.2,85.6 1048.7,124.6 981.1,85.6" fill="#C07F33" stroke="#4C618C" stroke-width="1.5"/><line x1="169.2" y1="129.0" x2="300.2" y2="82.6" stroke="#93A7C8" stroke-width="2.6" stroke-linecap="round"/><polygon points="311.5,78.6 302.3,88.5 298.1,76.7" fill="#93A7C8"/><line x1="398.8" y1="129.0" x2="529.8" y2="82.6" stroke="#93A7C8" stroke-width="2.6" stroke-linecap="round"/><polygon points="541.2,78.6 531.9,88.5 527.8,76.7" fill="#93A7C8"/><line x1="628.5" y1="129.0" x2="759.5" y2="82.6" stroke="#93A7C8" stroke-width="2.6" stroke-linecap="round"/><polygon points="770.8,78.6 761.6,88.5 757.4,76.7" fill="#93A7C8"/><line x1="858.2" y1="129.0" x2="989.2" y2="82.6" stroke="#93A7C8" stroke-width="2.6" stroke-linecap="round"/><polygon points="1000.5,78.6 991.3,88.5 987.1,76.7" fill="#93A7C8"/></svg>